Coordinates
version=1
nRows=17
nColumns=38
inDegrees=no

Units are S.I. units (second, meters, Newtons, ...)
If the header above contains a line with 'inDegrees', this indicates whether rotational values are in degrees (yes) or radians (no).

endheader
time	pelvis_tilt	pelvis_list	pelvis_rotation	pelvis_tx	pelvis_ty	pelvis_tz	hip_flexion_r	hip_adduction_r	hip_rotation_r	knee_angle_r	ankle_angle_r	subtalar_angle_r	mtp_angle_r	hip_flexion_l	hip_adduction_l	hip_rotation_l	knee_angle_l	ankle_angle_l	subtalar_angle_l	mtp_angle_l	lumbar_extension	lumbar_bending	lumbar_rotation	arm_flex_r	arm_add_r	arm_rot_r	elbow_flex_r	pro_sup_r	wrist_flex_r	wrist_dev_r	arm_flex_l	arm_add_l	arm_rot_l	elbow_flex_l	pro_sup_l	wrist_flex_l	wrist_dev_l
0	-1.27275	1.40759	-0.201122	0.804242	1.97629	0.929013	0.324908	0.0656231	-0.237006	0.563154	-0.342573	0	0	-0.203589	-0.222067	0.108151	0.485879	-0.31401	0	0	-0.502191	0.36881	0.339159	-0.512799	-0.0531441	-0.630123	1.48866	1.5708	0	0	0.307801	0.00991853	0.306916	0.280383	1.5708	0	0
0.01	-1.13319	1.40355	-0.342576	0.802895	1.97565	0.929965	0.301665	0.0657062	-0.23296	0.569625	-0.339511	0	0	-0.209964	-0.223384	0.0995515	0.51447	-0.322436	0	0	-0.509838	0.362425	0.346086	-0.520974	-0.0707941	-0.608138	1.48012	1.5708	0	0	0.295039	0.00133663	0.303248	0.317629	1.5708	0	0
0.02	-1.22324	1.41248	-0.255899	0.801907	1.97309	0.929606	0.318768	0.0639671	-0.224953	0.57143	-0.340481	0	0	-0.172741	-0.214259	0.127592	0.57155	-0.301912	0	0	-0.516367	0.356203	0.322703	-0.513172	-0.0772595	-0.585329	1.48194	1.5708	0	0	0.248999	-0.0296362	0.28208	0.396096	1.5708	0	0
0.03	-1.1033	1.40765	-0.37502	0.801054	1.97219	0.930449	0.297443	0.0635095	-0.229135	0.574901	-0.334646	0	0	-0.17135	-0.213483	0.133624	0.620091	-0.299127	0	0	-0.511758	0.355325	0.341887	-0.520137	-0.0662629	-0.601828	1.47145	1.5708	0	0	0.288796	-0.00446811	0.293537	0.317534	1.5708	0	0
0.04	-1.22751	1.41565	-0.253574	0.800373	1.96932	0.929363	0.319003	0.0634838	-0.224868	0.577144	-0.333634	0	0	-0.135396	-0.208143	0.149264	0.676366	-0.270996	0	0	-0.516072	0.354931	0.301795	-0.506602	-0.0807973	-0.563995	1.47751	1.5708	0	0	0.221599	-0.0430686	0.244163	0.425193	1.5708	0	0
0.05	-1.19826	1.41595	-0.283492	0.799489	1.96751	0.929928	0.311599	0.0636126	-0.225743	0.575769	-0.332345	0	0	-0.119293	-0.206238	0.158184	0.7167	-0.286145	0	0	-0.520467	0.35302	0.296833	-0.504945	-0.0801216	-0.557698	1.4751	1.5708	0	0	0.214822	-0.047393	0.235386	0.431229	1.5708	0	0
0.06	-1.14372	1.41639	-0.339022	0.79846	1.96573	0.9312	0.29919	0.0628358	-0.225443	0.572177	-0.331125	0	0	-0.106318	-0.206457	0.153923	0.728943	-0.321991	0	0	-0.529042	0.348496	0.291209	-0.500917	-0.0795704	-0.550839	1.47051	1.5708	0	0	0.20944	-0.0519021	0.226913	0.435232	1.5708	0	0
0.07	-1.11394	1.41578	-0.368938	0.797844	1.96405	0.931683	0.291944	0.0628589	-0.225889	0.571954	-0.32872	0	0	-0.0906616	-0.20514	0.156608	0.769594	-0.324938	0	0	-0.533228	0.347113	0.287399	-0.499956	-0.0791797	-0.546434	1.46771	1.5708	0	0	0.204697	-0.0549788	0.221344	0.437331	1.5708	0	0
0.08	-1.08611	1.41459	-0.397442	0.797129	1.96246	0.932196	0.284969	0.0639126	-0.224771	0.571531	-0.326739	0	0	-0.0746241	-0.206438	0.159147	0.802363	-0.342066	0	0	-0.537396	0.345774	0.285825	-0.499345	-0.0781972	-0.54381	1.464	1.5708	0	0	0.202002	-0.0570373	0.218458	0.436561	1.5708	0	0
0.09	-1.05655	1.41329	-0.428124	0.796506	1.96088	0.93269	0.278263	0.0641032	-0.225437	0.572239	-0.325431	0	0	-0.0596014	-0.204485	0.162504	0.839999	-0.335285	0	0	-0.540467	0.343313	0.288116	-0.500536	-0.0760752	-0.544228	1.45896	1.5708	0	0	0.202304	-0.057103	0.219395	0.432215	1.5708	0	0
0.1	-1.05226	1.41268	-0.433126	0.796103	1.95947	0.932609	0.27687	0.0646161	-0.226007	0.574672	-0.323882	0	0	-0.0354166	-0.197473	0.188831	0.917466	-0.252227	0	0	-0.538459	0.342173	0.292639	-0.504149	-0.0733518	-0.546899	1.45469	1.5708	0	0	0.204067	-0.0562246	0.225822	0.425716	1.5708	0	0
0.11	-1.01638	1.41064	-0.471661	0.795415	1.9579	0.933346	0.268018	0.0651671	-0.226328	0.573316	-0.324097	0	0	-0.0242782	-0.196222	0.186757	0.949292	-0.244209	0	0	-0.543265	0.338788	0.296323	-0.505527	-0.0718763	-0.546573	1.45033	1.5708	0	0	0.203568	-0.0571182	0.229945	0.423156	1.5708	0	0
0.12	-0.976449	1.40867	-0.514762	0.794697	1.95634	0.934241	0.258313	0.0649646	-0.226716	0.571665	-0.324245	0	0	-0.0153207	-0.194501	0.182315	0.973067	-0.238712	0	0	-0.548981	0.334727	0.299166	-0.505915	-0.0709133	-0.545531	1.44582	1.5708	0	0	0.202327	-0.0585788	0.233996	0.420904	1.5708	0	0
0.13	-0.935101	1.40685	-0.560736	0.793623	1.95491	0.935256	0.248617	0.065267	-0.223784	0.569785	-0.324308	0	0	-0.00776157	-0.193089	0.174298	0.991557	-0.235111	0	0	-0.555364	0.329055	0.303372	-0.505639	-0.0693261	-0.54461	1.4411	1.5708	0	0	0.202542	-0.0601464	0.237463	0.417849	1.5708	0	0
0.14	-0.900873	1.40444	-0.601145	0.792081	1.95367	0.936116	0.240112	0.0678039	-0.217304	0.568014	-0.324177	0	0	0.00453984	-0.193268	0.163915	1.01638	-0.238133	0	0	-0.561586	0.322875	0.310381	-0.505708	-0.0666339	-0.544994	1.43709	1.5708	0	0	0.204424	-0.0617175	0.241363	0.414013	1.5708	0	0
0.15	-0.825627	1.37642	-0.697404	0.79028	1.9494	0.937069	0.199997	0.0885719	-0.214217	0.557797	-0.320716	0	0	0.000202786	-0.389001	-0.264992	1.07164	-0.39435	0	0	-0.590355	0.326979	0.355835	-0.530216	-0.0564541	-0.563288	1.45506	1.5708	0	0	0.211079	-0.0550396	0.260825	0.402965	1.5708	0	0
0.16	-0.794957	1.3737	-0.731687	0.789523	1.94785	0.937946	0.189821	0.0876707	-0.215056	0.555261	-0.320405	0	0	0.00703206	-0.395733	-0.288755	1.0885	-0.380615	0	0	-0.596634	0.322018	0.355166	-0.528782	-0.0570029	-0.559119	1.45136	1.5708	0	0	0.207971	-0.0573217	0.255822	0.403802	1.5708	0	0
